<svg id="图层_1" data-name="图层 1" xmlns="http://www.w3.org/2000/svg" viewBox="0 0 53.86 28.35"><defs><style>.cls-1{fill:#fff;}</style></defs><title>东软望海logo矢量图</title><path class="cls-1" d="M34.53,11.92s-3.77,5.42-7.37,8c1.83,0,1.63-.13,1.63-.13Z"/><path class="cls-1" d="M25.79,22l-1.66,4a.87.87,0,0,1-.37.4,1.07,1.07,0,0,1-.57.17H22.9L24.8,22H23.39l-1.66,4a.88.88,0,0,1-.37.4,1.08,1.08,0,0,1-.57.17h-.27L22.41,22H21l-2.13,5.16h1.39a3,3,0,0,0,1.08-.18l-.07.18h1.4a3.71,3.71,0,0,0,1.95-.58,3,3,0,0,0,1.28-1.38L27.21,22Z"/><path class="cls-1" d="M37.57,24.25h2.12L39,26a1.64,1.64,0,0,1-.81.86,2.41,2.41,0,0,1-1.08.29H35.68a1,1,0,0,1-.86-.34.74.74,0,0,1-.08-.8l1.19-2.87a1.76,1.76,0,0,1,.74-.8A2.13,2.13,0,0,1,37.81,22h1.42q1.33,0,.94,1.14h-.71c.1-.38-.05-.57-.47-.57h-.71a1.09,1.09,0,0,0-.57.17.89.89,0,0,0-.38.4L36.15,26a.37.37,0,0,0,0,.4.53.53,0,0,0,.43.17,1,1,0,0,0,.95-.57L38,24.82h-.71Z"/><path class="cls-1" d="M43,27.11a1.36,1.36,0,0,0,.65-.54L45.61,22H44.19l-.95,2.29H41.82L42.77,22H41.36l-2.13,5.16h1a1.36,1.36,0,0,0,.66-.55l.72-1.74H43l-.95,2.29Z"/><path class="cls-1" d="M33.74,26.47,35.61,22H34.19l-2.13,5.16h1A1.49,1.49,0,0,0,33.74,26.47Z"/><path class="cls-1" d="M30.93,27.11a1.36,1.36,0,0,0,.66-.55L33.5,22H32.08l-.95,2.29H29.72l1-2.29H29.25l-2.14,5.16h1a1.39,1.39,0,0,0,.67-.56l.72-1.73H30.9l-.95,2.29Z"/><path class="cls-1" d="M20.29,22.53l.24-.58H17l-2.14,5.16h3.25a.9.9,0,0,0,.42-.33l.1-.24H16.51l.71-1.72h1.42l.24-.57H17.46l.71-1.72Z"/><path class="cls-1" d="M10.14,26.53l.24.57h.83a1.52,1.52,0,0,0,1-.84L14,22H12.6L11.14,25.5,9.67,22H8.25Z"/><path class="cls-1" d="M14.15,26.82l.13-.16a1.09,1.09,0,0,0,.12-.22v0h0L16.27,22H14.86l-2.14,5.16h.75A1,1,0,0,0,14.15,26.82Z"/><path class="cls-1" d="M33.9,1.24a2.3,2.3,0,0,0-.39.06c-.84.28-2.41,1.23-4.79,4.37-1.43,1.89-2.94,4-4.34,6.06h0l-.34.52-1.37,2a33.31,33.31,0,0,1-4.15,5,4.85,4.85,0,0,1-2.32,1.2h9s2.19-.05,8.34-8.47C36.56,8,39.55,1.78,42.58,1.24Z"/><path class="cls-1" d="M6.45,2.3a1.51,1.51,0,0,1,.3,0,2.29,2.29,0,0,1,.58.27l.09.05h0a3.43,3.43,0,0,1,.32.24h0A5.06,5.06,0,0,1,8.67,4a33.78,33.78,0,0,1,2.61,7l1.58,5.15a6.59,6.59,0,0,0,1.3,2.47,2,2,0,0,0,1.65.75c1.75-.1,3.11-1.54,4.47-2.85.23-.22.58-.61,1-1.11L19.07,8.55A25.73,25.73,0,0,0,17.59,5l-.13-.23a9.79,9.79,0,0,0-.6-1,4.25,4.25,0,0,0-1.44-1.27,3.76,3.76,0,0,0-.92-.28H6.45Z"/><path class="cls-1" d="M42,3.35l-.22,0-.06,0h0c-.54.18-2.09.93-4.22,4.15a81.63,81.63,0,0,1-7.75,10.29,21.28,21.28,0,0,1-2.25,2.08h6.22a2.51,2.51,0,0,0,1.15-.39c1-.75,2.67-2.51,5.39-6.65,2.29-3.22,6-9.08,8.25-9.52Z"/><path class="cls-1" d="M48.46,3.35h0c-1.49.29-3.64,3-5.59,5.71,2.2-2.89,3.28-4,4.33-4.56,1.59-.88,2.41-.09,2.41-.09C49.39,3.62,49,3.32,48.46,3.35Z"/><path class="cls-1" d="M16.17,20.37A4.22,4.22,0,0,0,18,19.51l.51-.4a33.91,33.91,0,0,0,4.1-4.91l1.38-2,.34-.52h0c1.11-1.59,2.28-3.27,3.44-4.84-2.09,2.79-6.29,8.43-7.52,9.6s-2.73,2.75-4.47,2.85a2,2,0,0,1-1.65-.75,6.59,6.59,0,0,1-1.3-2.47L11.29,11A33.78,33.78,0,0,0,8.67,4a5.06,5.06,0,0,0-.93-1.09h0a3.43,3.43,0,0,0-.32-.24h0l-.09-.05a2.29,2.29,0,0,0-.58-.27C6,2.17,5.22,2.51,4.22,3.62a3.35,3.35,0,0,1,2.91-.2,2.64,2.64,0,0,1,.84.5c.29.19,1.72,1.5,3.93,9.39.21.72.44,1.5.67,2.34.33,1,.88,2.47.93,2.59a4,4,0,0,0,1.46,2,2.53,2.53,0,0,0,1,.21l.32,0Z"/><path class="cls-1" d="M42.58,1.24c-2.09.38-4.16,3.47-6.25,6.62,2.75-3.58,3.8-4.64,4.94-5.25a2.85,2.85,0,0,1,3.07-.07C43.81,1.57,43.24,1.2,42.58,1.24Z"/></svg>